<svg width="90" height="50" viewBox="0 0 90 50" xmlns="http://www.w3.org/2000/svg">
    <path d="M18.747 11v3.419H9.429v8.078h9.319v3.419H9.429v11.512H6V11zM21.627 37.598c1.237-.137 1.857-.518 1.857-1.156V20.434h3.424v15.975c0 2.785-1.759 4.314-5.281 4.592v-3.403zm5.266-23.457c.473.463.71 1.029.71 1.7 0 .673-.237 1.238-.71 1.7a2.359 2.359 0 0 1-1.706.695 2.33 2.33 0 0 1-1.689-.695 2.276 2.276 0 0 1-.712-1.7c0-.671.237-1.237.712-1.7a2.335 2.335 0 0 1 1.689-.695 2.335 2.335 0 0 1 1.706.695zM41.013 19.045c2.6 0 4.822.918 6.663 2.756 1.836 1.843 2.752 4.058 2.752 6.658 0 2.602-.916 4.822-2.752 6.658-1.841 1.84-4.062 2.76-6.663 2.76-2.597 0-4.814-.92-6.66-2.76-1.841-1.836-2.761-4.059-2.761-6.658 0-2.601.92-4.814 2.761-6.658 1.847-1.838 4.065-2.756 6.66-2.756zm-4.18 5.251C35.68 25.452 35.1 26.84 35.1 28.459c0 1.629.58 3.018 1.733 4.162 1.15 1.146 2.546 1.721 4.18 1.721 1.63 0 3.029-.572 4.177-1.721 1.154-1.145 1.731-2.533 1.731-4.162 0-1.619-.575-3.007-1.731-4.163-1.147-1.154-2.546-1.732-4.177-1.732-1.634-.002-3.031.579-4.18 1.732zM57.833 22.729c1.272-1.729 2.849-2.636 4.713-2.725v3.553c-1.247.064-2.241.469-2.981 1.205-1.109 1.098-1.691 2.408-1.734 3.93v8.738h-3.428V20.434h3.428v2.295h.002zM80.557 21.604V11H84v26.43h-3.443v-2.113c-1.654 1.707-3.58 2.562-5.777 2.562-2.604 0-4.82-.92-6.659-2.76-1.838-1.836-2.759-4.061-2.759-6.658 0-2.602.921-4.813 2.759-6.655 1.841-1.839 4.058-2.758 6.659-2.758 2.197-.003 4.12.849 5.777 2.556zm0 8.128v-2.529c-.199-1.062-.732-2.035-1.604-2.907-1.149-1.154-2.533-1.732-4.173-1.732-1.633 0-3.026.576-4.178 1.732-1.15 1.155-1.729 2.543-1.729 4.163 0 1.629.573 3.018 1.729 4.162 1.15 1.146 2.545 1.721 4.178 1.721 1.64 0 3.025-.572 4.173-1.721.867-.861 1.404-1.834 1.604-2.889z" fill="#111"/>
</svg>
